<svg xmlns="http://www.w3.org/2000/svg" version="1.1" xmlns:xlink="http://www.w3.org/1999/xlink" xmlns:svgjs="http://svgjs.dev/svgjs" width="1000" height="272" viewBox="0 0 1000 272"><g transform="matrix(1,0,0,1,0.1066666666666265,-0.4346666666666863)"><svg viewBox="0 0 375 102" data-background-color="#ffffff" preserveAspectRatio="xMidYMid meet" height="272" width="1000" xmlns="http://www.w3.org/2000/svg" xmlns:xlink="http://www.w3.org/1999/xlink"><g id="tight-bounds" transform="matrix(1,0,0,1,-0.03976036071776434,0.16304425048829785)"><svg viewBox="0 0 375.07952880859375 101.67350006103516" height="101.67350006103516" width="375.07952880859375"><g><svg></svg></g><g><svg viewBox="0 0 375.07952880859375 101.67350006103516" height="101.67350006103516" width="375.07952880859375"><g transform="matrix(1,0,0,1,-10.220239639282227,-76.10004425048828)"><path xmlns="http://www.w3.org/2000/svg" d="M10.22 171.1v-95h375.08v95l-197.854 0 0-3.257h194.597v-88.486h-368.566v88.486h24.798l0 3.257z" fill="#000000" fill-rule="nonzero" stroke="none" stroke-width="1" stroke-linecap="butt" stroke-linejoin="miter" stroke-miterlimit="10" stroke-dasharray="" stroke-dashoffset="0" font-family="none" font-weight="none" font-size="none" text-anchor="none" style="mix-blend-mode: normal" data-fill-palette-color="tertiary"></path><g><path xmlns="http://www.w3.org/2000/svg" d="M48.046 163.016h1.389v10.637h-1.389zM61.857 165.137c0.651 0 1.231 0.134 1.74 0.403 0.509 0.271 0.911 0.676 1.206 1.215 0.295 0.539 0.443 1.195 0.442 1.969v0 4.929h-1.373v-4.731c0-0.834-0.207-1.473-0.62-1.917-0.411-0.442-0.968-0.662-1.669-0.662v0c-0.722 0-1.297 0.231-1.725 0.693-0.427 0.464-0.641 1.133-0.641 2.008v0 4.609h-1.373v-4.731c0-0.834-0.207-1.473-0.62-1.917-0.411-0.442-0.968-0.662-1.669-0.662v0c-0.722 0-1.297 0.231-1.725 0.693-0.427 0.464-0.641 1.133-0.641 2.008v0 4.609h-1.389v-8.363h1.389v1.206c0.275-0.437 0.644-0.773 1.108-1.008 0.462-0.234 0.973-0.351 1.532-0.351v0c0.702 0 1.323 0.158 1.862 0.473 0.539 0.315 0.941 0.778 1.206 1.389v0c0.234-0.59 0.621-1.048 1.16-1.373 0.539-0.326 1.139-0.488 1.8-0.489zM67 169.441c0-0.855 0.173-1.605 0.519-2.253 0.346-0.645 0.822-1.146 1.429-1.501 0.604-0.356 1.278-0.534 2.02-0.534v0c0.733 0 1.368 0.158 1.908 0.473 0.539 0.315 0.941 0.712 1.206 1.19v0-1.526h1.404v8.363h-1.404v-1.557c-0.275 0.488-0.684 0.892-1.227 1.212-0.545 0.322-1.179 0.482-1.902 0.482v0c-0.743 0-1.414-0.183-2.014-0.549-0.6-0.366-1.073-0.88-1.42-1.541-0.346-0.661-0.519-1.414-0.519-2.259zM74.082 169.456c0-0.631-0.127-1.18-0.382-1.648-0.254-0.468-0.597-0.827-1.029-1.077-0.433-0.248-0.91-0.372-1.428-0.373v0c-0.519 0-0.992 0.122-1.419 0.366-0.427 0.244-0.768 0.6-1.023 1.069-0.254 0.468-0.382 1.017-0.381 1.648v0c0 0.641 0.127 1.198 0.381 1.67 0.254 0.474 0.595 0.835 1.023 1.083 0.427 0.25 0.9 0.375 1.419 0.376v0c0.519 0 0.995-0.125 1.428-0.376 0.431-0.248 0.774-0.609 1.029-1.083 0.254-0.472 0.382-1.024 0.382-1.655zM81.285 165.153c0.722 0 1.355 0.158 1.898 0.473 0.545 0.315 0.95 0.712 1.215 1.19v0-1.526h1.404v8.546c0 0.763-0.163 1.443-0.488 2.039-0.326 0.594-0.791 1.059-1.395 1.395-0.606 0.336-1.311 0.504-2.115 0.504v0c-1.099 0-2.014-0.259-2.747-0.779-0.733-0.519-1.165-1.226-1.297-2.121v0h1.373c0.153 0.509 0.468 0.919 0.946 1.23 0.478 0.309 1.053 0.464 1.725 0.464v0c0.763 0 1.386-0.239 1.868-0.717 0.484-0.478 0.726-1.15 0.726-2.015v0-1.755c-0.275 0.488-0.682 0.895-1.221 1.221-0.539 0.326-1.17 0.488-1.892 0.488v0c-0.743 0-1.416-0.183-2.021-0.549-0.606-0.366-1.083-0.88-1.428-1.541-0.346-0.661-0.519-1.414-0.519-2.259v0c0-0.855 0.173-1.605 0.519-2.253 0.346-0.645 0.822-1.146 1.428-1.501 0.604-0.356 1.278-0.534 2.021-0.534zM84.398 169.456c0-0.631-0.127-1.18-0.381-1.648-0.254-0.468-0.598-0.827-1.032-1.077-0.431-0.248-0.907-0.372-1.425-0.373v0c-0.519 0-0.992 0.122-1.42 0.366-0.427 0.244-0.768 0.6-1.022 1.069-0.254 0.468-0.382 1.017-0.382 1.648v0c0 0.641 0.127 1.198 0.382 1.67 0.254 0.474 0.595 0.835 1.022 1.083 0.427 0.25 0.9 0.375 1.42 0.376v0c0.519 0 0.994-0.125 1.425-0.376 0.433-0.248 0.777-0.609 1.032-1.083 0.254-0.472 0.382-1.024 0.381-1.655zM95.783 169.151c0 0.265-0.015 0.544-0.046 0.839v0h-6.684c0.051 0.824 0.333 1.467 0.845 1.929 0.515 0.464 1.138 0.696 1.871 0.696v0c0.6 0 1.102-0.14 1.505-0.421 0.401-0.279 0.683-0.652 0.846-1.12v0h1.495c-0.224 0.804-0.671 1.458-1.343 1.962-0.671 0.503-1.506 0.754-2.503 0.754v0c-0.794 0-1.503-0.178-2.127-0.534-0.627-0.356-1.118-0.863-1.474-1.52-0.356-0.655-0.534-1.415-0.534-2.28v0c0-0.865 0.173-1.623 0.518-2.274 0.346-0.651 0.832-1.153 1.459-1.504 0.625-0.35 1.344-0.525 2.158-0.525v0c0.794 0 1.496 0.173 2.106 0.518 0.61 0.346 1.082 0.821 1.414 1.426 0.33 0.606 0.494 1.291 0.494 2.054zM94.348 168.861c0-0.529-0.117-0.985-0.351-1.367-0.234-0.381-0.551-0.67-0.952-0.87-0.403-0.197-0.849-0.296-1.337-0.296v0c-0.702 0-1.299 0.224-1.791 0.671-0.494 0.448-0.777 1.068-0.849 1.862v0zM111.411 166.099h-1.664c-0.295-0.621-0.722-1.102-1.282-1.444-0.56-0.34-1.211-0.51-1.953-0.51v0c-0.743 0-1.412 0.17-2.009 0.51-0.594 0.342-1.062 0.83-1.404 1.465-0.34 0.637-0.51 1.372-0.509 2.207v0c0 0.834 0.17 1.567 0.509 2.198 0.342 0.631 0.81 1.116 1.404 1.455 0.596 0.342 1.266 0.513 2.009 0.513v0c1.038 0 1.892-0.31 2.564-0.931 0.671-0.621 1.063-1.46 1.175-2.518v0h-4.243v-1.129h5.723v1.068c-0.081 0.875-0.356 1.676-0.824 2.402-0.468 0.728-1.084 1.303-1.847 1.725-0.763 0.423-1.613 0.635-2.548 0.635v0c-0.987 0-1.887-0.232-2.702-0.696-0.814-0.462-1.458-1.105-1.932-1.929-0.472-0.824-0.708-1.755-0.708-2.793v0c0-1.038 0.236-1.972 0.708-2.802 0.474-0.828 1.118-1.474 1.932-1.938 0.814-0.462 1.714-0.693 2.702-0.693v0c1.129 0 2.128 0.28 2.997 0.839 0.871 0.56 1.505 1.348 1.902 2.366zM121.193 169.151c0 0.265-0.015 0.544-0.046 0.839v0h-6.684c0.051 0.824 0.333 1.467 0.845 1.929 0.515 0.464 1.138 0.696 1.871 0.696v0c0.6 0 1.102-0.14 1.505-0.421 0.401-0.279 0.683-0.652 0.845-1.12v0h1.496c-0.224 0.804-0.671 1.458-1.343 1.962-0.671 0.503-1.506 0.754-2.503 0.754v0c-0.794 0-1.503-0.178-2.127-0.534-0.627-0.356-1.118-0.863-1.474-1.52-0.356-0.655-0.534-1.415-0.535-2.28v0c0-0.865 0.173-1.623 0.519-2.274 0.346-0.651 0.832-1.153 1.459-1.504 0.625-0.35 1.344-0.525 2.158-0.525v0c0.794 0 1.496 0.173 2.106 0.518 0.61 0.346 1.082 0.821 1.413 1.426 0.33 0.606 0.494 1.291 0.495 2.054zM119.758 168.861c0-0.529-0.117-0.985-0.351-1.367-0.234-0.381-0.551-0.67-0.952-0.87-0.403-0.197-0.849-0.296-1.337-0.296v0c-0.702 0-1.299 0.224-1.791 0.671-0.494 0.448-0.777 1.068-0.849 1.862v0zM127.099 165.137c1.017 0 1.842 0.307 2.472 0.922 0.631 0.617 0.946 1.505 0.947 2.665v0 4.929h-1.374v-4.731c0-0.834-0.209-1.473-0.626-1.917-0.417-0.442-0.987-0.662-1.709-0.662v0c-0.733 0-1.315 0.229-1.746 0.687-0.433 0.458-0.65 1.124-0.65 1.999v0 4.624h-1.389v-8.363h1.389v1.19c0.275-0.427 0.649-0.758 1.123-0.992 0.472-0.234 0.993-0.351 1.563-0.351zM140.422 169.151c0 0.265-0.015 0.544-0.046 0.839v0h-6.684c0.051 0.824 0.333 1.467 0.845 1.929 0.515 0.464 1.138 0.696 1.871 0.696v0c0.6 0 1.101-0.14 1.502-0.421 0.403-0.279 0.686-0.652 0.849-1.12v0h1.495c-0.224 0.804-0.671 1.458-1.343 1.962-0.671 0.503-1.506 0.754-2.503 0.754v0c-0.794 0-1.503-0.178-2.127-0.534-0.627-0.356-1.118-0.863-1.474-1.52-0.356-0.655-0.534-1.415-0.534-2.28v0c0-0.865 0.173-1.623 0.518-2.274 0.346-0.651 0.831-1.153 1.456-1.504 0.627-0.35 1.347-0.525 2.161-0.525v0c0.794 0 1.496 0.173 2.106 0.518 0.61 0.346 1.082 0.821 1.414 1.426 0.33 0.606 0.494 1.291 0.494 2.054zM138.988 168.861c0-0.529-0.117-0.985-0.352-1.367-0.234-0.381-0.552-0.67-0.955-0.87-0.401-0.197-0.845-0.296-1.334-0.296v0c-0.702 0-1.3 0.224-1.794 0.671-0.492 0.448-0.774 1.068-0.846 1.862v0zM143.642 166.648c0.244-0.478 0.592-0.85 1.044-1.114 0.454-0.265 1.006-0.397 1.657-0.397v0 1.435h-0.366c-1.557 0-2.335 0.844-2.335 2.533v0 4.548h-1.389v-8.363h1.389zM147.427 169.441c0-0.855 0.173-1.605 0.519-2.253 0.346-0.645 0.821-1.146 1.425-1.501 0.606-0.356 1.281-0.534 2.024-0.534v0c0.733 0 1.368 0.158 1.908 0.473 0.539 0.315 0.941 0.712 1.205 1.19v0-1.526h1.404v8.363h-1.404v-1.557c-0.275 0.488-0.685 0.892-1.23 1.212-0.543 0.322-1.176 0.482-1.898 0.482v0c-0.743 0-1.414-0.183-2.015-0.549-0.6-0.366-1.073-0.88-1.419-1.541-0.346-0.661-0.519-1.414-0.519-2.259zM154.508 169.456c0-0.631-0.127-1.18-0.381-1.648-0.254-0.468-0.598-0.827-1.032-1.077-0.431-0.248-0.907-0.372-1.425-0.373v0c-0.519 0-0.992 0.122-1.42 0.366-0.427 0.244-0.768 0.6-1.022 1.069-0.254 0.468-0.382 1.017-0.382 1.648v0c0 0.641 0.127 1.198 0.382 1.67 0.254 0.474 0.595 0.835 1.022 1.083 0.427 0.25 0.9 0.375 1.42 0.376v0c0.519 0 0.994-0.125 1.425-0.376 0.433-0.248 0.777-0.609 1.032-1.083 0.254-0.472 0.382-1.024 0.381-1.655zM162.139 166.434h-2.183v4.93c0 0.407 0.086 0.695 0.26 0.864 0.173 0.167 0.473 0.25 0.9 0.25v0h1.023v1.175h-1.252c-0.773 0-1.353-0.178-1.739-0.534-0.387-0.356-0.58-0.941-0.58-1.755v0-4.93h-1.084v-1.144h1.084v-2.106h1.388v2.106h2.183zM167.465 173.79c-0.783 0-1.494-0.178-2.131-0.534-0.635-0.356-1.133-0.863-1.495-1.52-0.36-0.655-0.54-1.415-0.54-2.28v0c0-0.855 0.185-1.611 0.555-2.268 0.372-0.655 0.879-1.159 1.52-1.51 0.641-0.35 1.358-0.525 2.152-0.525v0c0.794 0 1.511 0.175 2.152 0.525 0.641 0.352 1.147 0.854 1.517 1.504 0.372 0.651 0.559 1.409 0.558 2.274v0c0 0.865-0.191 1.625-0.574 2.28-0.381 0.657-0.896 1.164-1.547 1.52-0.651 0.356-1.374 0.534-2.167 0.534zM167.465 172.57c0.499 0 0.967-0.117 1.404-0.352 0.437-0.234 0.791-0.585 1.059-1.053 0.271-0.468 0.406-1.038 0.406-1.709v0c0-0.671-0.132-1.241-0.397-1.709-0.265-0.468-0.61-0.817-1.038-1.047-0.427-0.228-0.89-0.342-1.388-0.342v0c-0.509 0-0.975 0.114-1.398 0.342-0.421 0.23-0.759 0.579-1.014 1.047-0.254 0.468-0.382 1.038-0.381 1.709v0c0 0.682 0.124 1.257 0.372 1.725 0.25 0.468 0.584 0.817 1.001 1.047 0.417 0.228 0.875 0.342 1.374 0.342zM174.973 166.648c0.244-0.478 0.592-0.85 1.044-1.114 0.454-0.265 1.006-0.397 1.658-0.397v0 1.435h-0.367c-1.557 0-2.335 0.844-2.335 2.533v0 4.548h-1.388v-8.363h1.388z" fill="#89939e" fill-rule="nonzero" stroke="none" stroke-width="1" stroke-linecap="butt" stroke-linejoin="miter" stroke-miterlimit="10" stroke-dasharray="" stroke-dashoffset="0" font-family="none" font-weight="none" font-size="none" text-anchor="none" style="mix-blend-mode: normal" data-fill-palette-color="secondary"></path></g></g><g transform="matrix(1,0,0,1,29.331764404296877,32.77889445902069)"><svg viewBox="0 0 316.416 36.115711142993774" height="36.115711142993774" width="316.416"><g><svg viewBox="0 0 316.41600000000005 36.11571114299378" height="36.115711142993774" width="316.416"><g><svg viewBox="0 0 316.41600000000005 36.11571114299378" height="36.11571114299378" width="316.41600000000005"><g id="textblocktransform"><svg viewBox="0 0 316.41600000000005 36.11571114299378" height="36.11571114299378" width="316.41600000000005" id="textblock"><g><svg viewBox="0 0 316.41600000000005 36.11571114299378" height="36.11571114299378" width="316.41600000000005"><g transform="matrix(1,0,0,1,0,0)"><svg width="316.41600000000005" viewBox="-0.05000000447034836 -35.400001525878906 313.6299743652344 35.80000305175781" height="36.11571114299378" data-palette-color="#000000"><path d="M31.4 0L27.55-8.75 8.95-8.75 5.1 0-0.05 0 15.8-35 20.75-35 36.65 0 31.4 0ZM10.7-12.75L25.8-12.75 18.25-29.9 10.7-12.75ZM70.7 0L65.25 0 57.7-10.75Q56.3-10.65 55.5-10.65L55.5-10.65 46.85-10.65 46.85 0 41.85 0 41.85-35 55.5-35Q62.3-35 66.2-31.75 70.1-28.5 70.1-22.8L70.1-22.8Q70.1-18.75 68.1-15.9 66.1-13.05 62.4-11.75L62.4-11.75 70.7 0ZM55.35-14.9Q60.1-14.9 62.6-16.95 65.1-19 65.1-22.8L65.1-22.8Q65.1-26.6 62.6-28.63 60.1-30.65 55.35-30.65L55.35-30.65 46.85-30.65 46.85-14.9 55.35-14.9ZM84.65 0L84.65-30.65 72.65-30.65 72.65-35 101.6-35 101.6-30.65 89.6-30.65 89.6 0 84.65 0ZM107.04 0L107.04-35 112.04-35 112.04 0 107.04 0ZM147.24-30.65L127.54-30.65 127.54-18.45 145.09-18.45 145.09-14.15 127.54-14.15 127.54 0 122.54 0 122.54-35 147.24-35 147.24-30.65ZM181.59-35L167.69-12.1 167.69 0 162.74 0 162.74-12.2 148.84-35 154.19-35 165.39-16.55 176.64-35 181.59-35ZM186.04 0L186.04-35 191.04-35 191.04-4.35 209.99-4.35 209.99 0 186.04 0ZM220.73-4.35L241.13-4.35 241.13 0 215.73 0 215.73-35 240.43-35 240.43-30.65 220.73-30.65 220.73-19.9 238.28-19.9 238.28-15.65 220.73-15.65 220.73-4.35ZM274.33-35L279.33-35 279.33 0 275.23 0 254.23-26.1 254.23 0 249.23 0 249.23-35 253.33-35 274.33-8.9 274.33-35ZM300.03 0.4Q296.08 0.4 292.4-0.83 288.73-2.05 286.63-4L286.63-4 288.48-7.9Q290.48-6.1 293.6-4.98 296.73-3.85 300.03-3.85L300.03-3.85Q304.38-3.85 306.53-5.33 308.68-6.8 308.68-9.25L308.68-9.25Q308.68-11.05 307.5-12.18 306.33-13.3 304.6-13.9 302.88-14.5 299.73-15.25L299.73-15.25Q295.78-16.2 293.35-17.15 290.93-18.1 289.2-20.08 287.48-22.05 287.48-25.4L287.48-25.4Q287.48-28.2 288.95-30.45 290.43-32.7 293.43-34.05 296.43-35.4 300.88-35.4L300.88-35.4Q303.98-35.4 306.98-34.6 309.98-33.8 312.13-32.3L312.13-32.3 310.48-28.3Q308.28-29.7 305.78-30.43 303.28-31.15 300.88-31.15L300.88-31.15Q296.63-31.15 294.5-29.6 292.38-28.05 292.38-25.6L292.38-25.6Q292.38-23.8 293.58-22.68 294.78-21.55 296.55-20.93 298.33-20.3 301.38-19.6L301.38-19.6Q305.33-18.65 307.73-17.7 310.13-16.75 311.85-14.8 313.58-12.85 313.58-9.55L313.58-9.55Q313.58-6.8 312.08-4.53 310.58-2.25 307.53-0.93 304.48 0.4 300.03 0.4L300.03 0.4Z" opacity="1" transform="matrix(1,0,0,1,0,0)" fill="#000000" class="wordmark-text-0" data-fill-palette-color="primary" id="text-0"></path></svg></g></svg></g></svg></g></svg></g></svg></g></svg></g></svg></g><defs></defs></svg><rect width="375.07952880859375" height="101.67350006103516" fill="none" stroke="none" visibility="hidden"></rect></g></svg></g></svg>